# xmcd
#
# Track frame offsets:
#	150
#	12974
#	26576
#	40368
#	51684
#	64042
#	77713
#	90342
#	103269
#	114476
#	127482
#	139724
#
# Disc length: 2032 seconds
#
# Revision: 0
# Processed by: cddbd v1.5.2PL0 Copyright (c) Steve Scherf et al.
# Submitted via: audiograbber 1.83.01
#
DISCID=a907ee0c
DTITLE=JAVIER SOLIS - EXITOS
DYEAR=1900
DGENRE=KARAOKE
TTITLE0=ESPUMAS
TTITLE1=PAYASO
TTITLE2=ME ESTA DOLIENDO SU AUSENCIA
TTITLE3=SE TE OLVIDA
TTITLE4=OJITOS TRAIDORES
TTITLE5=SI DIOS ME QUITA LA VIDA
TTITLE6=EL MAL QUERIDO
TTITLE7=LA SENTENCIA
TTITLE8=ESCANDALO
TTITLE9=LA CORRIENTE
TTITLE10=Y
TTITLE11=NOBLEZA
EXTD=
EXTT0=
EXTT1=
EXTT2=
EXTT3=
EXTT4=
EXTT5=
EXTT6=
EXTT7=
EXTT8=
EXTT9=
EXTT10=
EXTT11=
PLAYORDER=
